<?xml version="1.0" encoding="utf-8"?>
<svg viewBox="0 0 155.26 45.67" xmlns="http://www.w3.org/2000/svg">
  <g id="Layer_2" data-name="Layer 2" transform="matrix(1, 0, 0, 1, -0.01949900016189332, 0.15504999458789825)">
    <g id="Layer_1-2" data-name="Layer 1">
      <path d="M63.9,15.31a9.07,9.07,0,0,1,3.71.74,8.54,8.54,0,0,1,2.83,2.05,9.34,9.34,0,0,1,1.82,3,11.2,11.2,0,0,1,0,7.52,9.34,9.34,0,0,1-1.82,3,8.54,8.54,0,0,1-2.83,2.05,9.07,9.07,0,0,1-3.71.74,8.39,8.39,0,0,1-4-.87,7.45,7.45,0,0,1-2.68-2.4v3H54.45V8.16h2.79V18.62a7.69,7.69,0,0,1,2.68-2.42A8.27,8.27,0,0,1,63.9,15.31ZM63.53,32a6.41,6.41,0,0,0,2.77-.56,6.18,6.18,0,0,0,2.07-1.52,6.64,6.64,0,0,0,1.3-2.25,8.57,8.57,0,0,0,0-5.48,6.64,6.64,0,0,0-1.3-2.25A6.18,6.18,0,0,0,66.3,18.4a6.41,6.41,0,0,0-2.77-.56,6.28,6.28,0,0,0-2.75.56,5.76,5.76,0,0,0-2,1.52,6.87,6.87,0,0,0-1.25,2.25,8.94,8.94,0,0,0,0,5.48,6.87,6.87,0,0,0,1.25,2.25,5.76,5.76,0,0,0,2,1.52A6.28,6.28,0,0,0,63.53,32Z" style="fill: #000000;"/>
      <path d="M84.86,32a5.73,5.73,0,0,0,5.4-3.12h3A9,9,0,0,1,90.24,33a8.88,8.88,0,0,1-5.42,1.56A9.92,9.92,0,0,1,81,33.77a8.76,8.76,0,0,1-3-2.05,9.19,9.19,0,0,1-1.9-3,10.59,10.59,0,0,1-.67-3.76A11,11,0,0,1,76,21.15a8.63,8.63,0,0,1,4.76-5.1,10.31,10.31,0,0,1,7.67,0,8.63,8.63,0,0,1,4.76,5.1,11,11,0,0,1,.64,3.76V26H78.27a7.38,7.38,0,0,0,.67,2.32,6.26,6.26,0,0,0,1.36,1.9,6.11,6.11,0,0,0,2,1.27A6.84,6.84,0,0,0,84.86,32Zm-.22-14.14a6.4,6.4,0,0,0-2.42.43,5.74,5.74,0,0,0-1.88,1.17A6.19,6.19,0,0,0,79,21.21a7.42,7.42,0,0,0-.7,2.21H91a7.42,7.42,0,0,0-.7-2.21,6.19,6.19,0,0,0-1.33-1.77,5.74,5.74,0,0,0-1.88-1.17A6.39,6.39,0,0,0,84.64,17.84Z" style="fill: #000000;"/>
      <path d="M100.08,15.61v2.9a9.37,9.37,0,0,1,2.46-2.27,6.79,6.79,0,0,1,3.72-.93,7.55,7.55,0,0,1,2.79.52,6.84,6.84,0,0,1,2.36,1.54,7.78,7.78,0,0,1,1.66,2.53,9,9,0,0,1,.63,3.48V34.22h-2.79V23.46a5.71,5.71,0,0,0-1.45-4.1,5,5,0,0,0-3.76-1.52,5.91,5.91,0,0,0-2.18.41,5.35,5.35,0,0,0-3,2.94,5.73,5.73,0,0,0-.45,2.31V34.22H97.29V15.61Z" style="fill: #000000;"/>
      <path d="M126.66,32a6.06,6.06,0,0,0,3.31-.85,5.9,5.9,0,0,0,2.08-2.27h3a8.46,8.46,0,0,1-8.48,5.65,9.85,9.85,0,0,1-3.87-.74,8.76,8.76,0,0,1-3-2.05,9.19,9.19,0,0,1-1.9-3,10.59,10.59,0,0,1-.67-3.76,11,11,0,0,1,.63-3.76,8.92,8.92,0,0,1,1.85-3,8.61,8.61,0,0,1,2.92-2.05,10.31,10.31,0,0,1,7.67,0,8.71,8.71,0,0,1,2.92,2.05,8.89,8.89,0,0,1,1.84,3,11,11,0,0,1,.63,3.76V26H120.07a7.38,7.38,0,0,0,.67,2.32,6.1,6.1,0,0,0,1.36,1.9,6,6,0,0,0,2,1.27A6.8,6.8,0,0,0,126.66,32Zm-.23-14.14a6.44,6.44,0,0,0-2.42.43,5.85,5.85,0,0,0-1.88,1.17,6.35,6.35,0,0,0-1.32,1.77,7.14,7.14,0,0,0-.7,2.21h12.65a7.16,7.16,0,0,0-.71-2.21,6.35,6.35,0,0,0-1.32-1.77,5.74,5.74,0,0,0-1.88-1.17A6.4,6.4,0,0,0,126.43,17.84Z" style="fill: #000000;"/>
      <path d="M147.28,22.94l8,11.28h-3.42l-6.51-9.35-3.5,3.46v5.89h-2.79V8.16h2.79V24.84l9-9.23h3.91Z" style="fill: #000000;"/>
      <path d="M28.27,4.45C30.46,7,31,11.13,33,14.52s5.46,5.91,6.79,9.23.54,7.42-2.33,9.27-7.81,1.48-11.34,2.9S20.4,40.52,17,42.77,8.8,46.26,5.76,44.59,1.39,38.19,1.87,34.1,4.65,26.51,4.2,22.73.48,14.88.05,10.88A9.92,9.92,0,0,1,5.53,1.21C9-.52,13.66-.07,17.9.56S26.06,2,28.27,4.45Z" style="fill:#d54d3a"/>
    </g>
  </g>
</svg>